<?xml version="1.0" encoding="iso-8859-1"?>
<!-- Generator: Adobe Illustrator 19.0.0, SVG Export Plug-In . SVG Version: 6.00 Build 0)  -->
<svg version="1.1" id="Capa_1" xmlns="http://www.w3.org/2000/svg" xmlns:xlink="http://www.w3.org/1999/xlink" x="0px" y="0px"
	 viewBox="0 0 512 512" style="enable-background:new 0 0 512 512;" xml:space="preserve">
<path style="fill:#9FD479;" d="M235.738,142.76c-13.18,0-24.722-6.846-31.364-17.159c-2.516-3.906-6.7-6.378-11.279-6.861v82.505
	h-82.929c0.614-4.389,3.043-8.367,6.802-10.796c10.313-6.627,17.145-18.183,17.145-31.364c0-21.401-18.022-38.604-39.731-37.244
	c-18.666,1.17-33.821,16.442-34.86,35.123c-0.775,14.087,6.261,26.565,17.188,33.543c3.745,2.399,6.115,6.393,6.7,10.737H0V58.851
	C0,30.852,22.703,8.149,50.702,8.149h142.394v83.967c4.535-0.468,8.733-2.882,11.22-6.773c6.978-10.913,19.456-17.964,33.558-17.188
	c18.681,1.039,33.953,16.194,35.123,34.874C274.343,124.723,257.155,142.76,235.738,142.76z"/>
<path style="fill:#F2DF33;" d="M386.193,201.245h-83.514c0.351,4.74,2.794,9.143,6.802,11.703
	c10.927,6.978,17.964,19.471,17.188,33.558c-1.039,18.681-16.194,33.953-34.86,35.123c-21.709,1.361-39.731-15.843-39.731-37.259
	c0-13.166,6.831-24.722,17.145-31.349c4.052-2.619,6.554-7.022,6.919-11.776h-83.046V118.74c4.579,0.483,8.762,2.955,11.279,6.861
	c6.641,10.313,18.183,17.159,31.364,17.159c21.416,0,38.605-18.037,37.259-39.731c-1.17-18.681-16.442-33.836-35.123-34.874
	c-14.102-0.775-26.58,6.276-33.558,17.188c-2.487,3.891-6.685,6.305-11.22,6.773V8.149H335.49c27.999,0,50.702,22.703,50.702,50.702
	v142.394H386.193z"/>
<g>
	<path style="fill:#D9B92C;" d="M335.49,8.149h-23.18c27.999,0,50.702,22.703,50.702,50.702v142.394h23.18V58.851
		C386.193,30.852,363.489,8.149,335.49,8.149z"/>
	<path style="fill:#D9B92C;" d="M309.481,212.948c-4.008-2.56-6.451-6.963-6.802-11.703h-23.18c0.351,4.74,2.794,9.143,6.802,11.703
		c10.927,6.978,17.964,19.471,17.189,33.558c-0.862,15.504-11.452,28.652-25.699,33.347c4.374,1.431,9.1,2.085,14.019,1.776
		c18.666-1.17,33.821-16.442,34.86-35.123C327.445,232.418,320.408,219.926,309.481,212.948z"/>
</g>
<path style="fill:#ED5575;" d="M512,310.755v142.394c0,27.999-22.703,50.702-50.702,50.702H318.904v-82.987
	c-4.535,0.468-8.733,2.882-11.22,6.773c-6.978,10.913-19.456,17.964-33.558,17.174c-18.681-1.039-33.953-16.194-35.123-34.86
	c-1.346-21.709,15.843-39.731,37.259-39.731c13.18,0,24.722,6.832,31.364,17.145c2.516,3.921,6.7,6.378,11.279,6.861v-83.47h83.046
	c-0.366,4.754-2.867,9.157-6.919,11.776c-10.313,6.627-17.145,18.183-17.145,31.349c0,21.416,18.022,38.619,39.731,37.259
	c18.666-1.17,33.821-16.442,34.86-35.123c0.775-14.087-6.261-26.58-17.189-33.558c-4.008-2.56-6.451-6.963-6.802-11.703L512,310.755
	L512,310.755z"/>
<g>
	<path style="fill:#CC3A60;" d="M371.851,322.531c-10.313,6.627-17.145,18.183-17.145,31.349c0,21.416,18.022,38.619,39.731,37.259
		c3.174-0.199,6.242-0.814,9.161-1.776c-14.928-4.885-25.712-18.92-25.712-35.483c0-13.166,6.831-24.722,17.145-31.349
		c4.052-2.619,6.553-7.022,6.919-11.776h-23.18C378.404,315.509,375.903,319.912,371.851,322.531z"/>
	<path style="fill:#CC3A60;" d="M488.82,310.755v142.394c0,27.999-22.703,50.702-50.702,50.702h23.18
		c27.999,0,50.702-22.703,50.702-50.702V310.755H488.82z"/>
</g>
<path style="fill:#5C9CEE;" d="M113.195,300.441c1.17,18.666,16.442,33.821,35.123,34.86c14.102,0.79,26.58-6.261,33.558-17.174
	c2.487-3.891,6.685-6.305,11.22-6.773v82.987H50.702C22.703,394.341,0,371.638,0,343.639V201.245h83.412
	c-0.585-4.345-2.955-8.338-6.7-10.737c-10.927-6.978-17.964-19.456-17.188-33.543c1.039-18.681,16.194-33.953,34.86-35.123
	c21.709-1.36,39.731,15.843,39.731,37.244c0,13.18-6.831,24.737-17.145,31.364c-3.759,2.428-6.188,6.407-6.802,10.796h82.929v83.47
	c-4.579-0.483-8.762-2.94-11.279-6.861c-6.641-10.313-18.183-17.145-31.364-17.145C129.038,260.71,111.849,278.732,113.195,300.441z
	"/>
<g>
</g>
<g>
</g>
<g>
</g>
<g>
</g>
<g>
</g>
<g>
</g>
<g>
</g>
<g>
</g>
<g>
</g>
<g>
</g>
<g>
</g>
<g>
</g>
<g>
</g>
<g>
</g>
<g>
</g>
</svg>
