<?xml version="1.0" encoding="utf-8"?>
<!-- Generator: Adobe Illustrator 22.1.0, SVG Export Plug-In . SVG Version: 6.00 Build 0)  -->
<svg version="1.1" xmlns="http://www.w3.org/2000/svg" xmlns:xlink="http://www.w3.org/1999/xlink" x="0px" y="0px"
	 viewBox="0 0 264.6 424.7" style="enable-background:new 0 0 264.6 424.7;" xml:space="preserve">
<style type="text/css">
	.st0{fill:#96CB5D;}
	.st1{fill:#FFCE04;}
	.st2{fill:#F7911E;}
	.st3{fill:#F05327;}
	.st4{fill:#F68B65;}
	.st5{fill:#E21E26;}
	.st6{fill:#B5E3F4;}
	.st7{fill:#60CCF3;}
	.st8{fill:#4FB9EA;}
	.st9{fill:#59BD7E;}
	.st10{fill:#02B9B8;}
	.st11{fill:#5D556B;}
	.st12{fill:#878492;}
	.st13{fill:#D85B4A;}
	.st14{fill:#EC8A23;}
	.st15{fill:#C7C9C7;}
	.st16{fill:#FBCF9E;}
	.st17{fill:#384650;}
	.st18{fill:#F1ECBF;}
	.st19{fill:#EABA1F;}
	.st20{fill:#7E5D63;}
	.st21{fill:#75C04C;}
	.st22{fill:#38B779;}
	.st23{fill:#BBE5F2;}
	.st24{fill:#6ACEF0;}
	.st25{fill:#5EBE81;}
	.st26{fill:#19BCBD;}
	.st27{fill:#FFFFFF;}
	.st28{fill:#49BEED;}
	.st29{fill:#6A5088;}
	.st30{fill:#C14E91;}
	.st31{fill:#E27EB3;}
	.st32{fill:#7A7A7A;}
	.st33{fill:#6B6B6A;}
	.st34{fill:#C9C9C9;}
	.st35{fill:#F7E542;}
	.st36{fill:#F4D343;}
	.st37{fill:#BB992F;}
	.st38{fill:#B5B6BC;}
	.st39{fill:#FFC853;}
	.st40{fill:#EBAF4A;}
	.st41{fill:#FEE372;}
	.st42{fill:#FED401;}
	.st43{fill:#FABE13;}
	.st44{fill:#F47822;}
	.st45{fill:#F04F23;}
	.st46{fill:#F99F1B;}
	.st47{fill:#ECEBF0;}
	.st48{fill:#E2E2E7;}
	.st49{fill:#85D4EB;}
	.st50{fill:#5B5B5B;}
	.st51{fill:#53C8E8;}
	.st52{fill:#454545;}
	.st53{fill:#BE1F3D;}
	.st54{fill:#EF4970;}
	.st55{fill:#FFCC76;}
	.st56{fill:#FAA739;}
</style>
<g id="Layer_1">
</g>
<g id="Layer_2">
	<g>
		<g>
			<path id="settings_1_" class="st0" d="M239.6,145.4l-8.3-1.4c-0.6-2.5-1.5-4.8-2.6-7l5.3-6.6c1.1-1.4,1.1-3.4-0.1-4.7l-3.3-3.7
				c-1.2-1.3-3.2-1.6-4.7-0.7l-7.1,4.5c-3.1-2.2-6.7-3.8-10.5-4.7l-1.4-8.3c-0.3-1.8-1.8-3.1-3.6-3.1h-5c-1.8,0-3.3,1.3-3.6,3.1
				l-1.4,8.3c-3.2,0.8-6.1,2-8.8,3.7l-6.8-4.8c-1.5-1-3.5-0.9-4.7,0.4l-3.5,3.5c-1.3,1.3-1.4,3.3-0.4,4.7l4.8,6.8
				c-1.6,2.7-2.9,5.6-3.6,8.7l-8.4,1.4c-1.8,0.3-3.1,1.8-3.1,3.6v5c0,1.8,1.3,3.3,3.1,3.6l8.4,1.4c0.6,2.6,1.6,5,2.8,7.3l-5.3,6.6
				c-1.1,1.4-1.1,3.4,0.1,4.7l3.3,3.7c1.2,1.3,3.2,1.6,4.7,0.7l7.2-4.5c3,2.1,6.5,3.6,10.2,4.5l1.4,8.3c0.3,1.8,1.8,3.1,3.6,3.1h5
				c1.8,0,3.3-1.3,3.6-3.1l1.4-8.3c3.1-0.8,6-2,8.7-3.6l7,5c1.5,1,3.5,0.9,4.7-0.4l3.5-3.5c1.3-1.3,1.4-3.3,0.4-4.7l-5-7
				c1.6-2.7,2.9-5.6,3.6-8.8l8.3-1.4c1.8-0.3,3.1-1.8,3.1-3.6v-5C242.6,147.3,241.4,145.7,239.6,145.4z M200.9,167.3
				c-8.7,0-15.7-7-15.7-15.7c0-8.7,7-15.7,15.7-15.7c8.7,0,15.7,7,15.7,15.7C216.6,160.2,209.6,167.3,200.9,167.3z"/>
		</g>
		<g>
			<g>
				<g>
					<path class="st1" d="M172.8,169.1c-1.9,0-4.1-0.4-6.4-1.2c-5.4-1.9-11.2-5.7-16.3-10.9c-5.1-5.1-9-10.9-10.9-16.3
						c-2-5.6-1.5-10.2,1.1-12.9c2.7-2.7,7.2-3.1,12.9-1.1c5.4,1.9,11.2,5.7,16.3,10.9c5.1,5.1,9,10.9,10.9,16.3
						c2,5.6,1.5,10.2-1.1,12.9l0,0l0,0C177.7,168.3,175.5,169.1,172.8,169.1z M146.8,127.2c-2.2,0-4,0.6-5.2,1.9
						c-2.2,2.2-2.4,6.1-0.7,11.1c1.8,5.2,5.5,10.7,10.4,15.7c4.9,4.9,10.5,8.7,15.7,10.4c5,1.7,8.9,1.5,11.1-0.7l0,0
						c2.2-2.2,2.4-6.1,0.7-11.1c-1.8-5.2-5.5-10.7-10.4-15.7c-4.9-4.9-10.5-8.7-15.7-10.4C150.4,127.6,148.5,127.2,146.8,127.2z"/>
				</g>
			</g>
			<g>
				<g>
					<path class="st2" d="M146.8,169.1c-2.7,0-4.9-0.8-6.4-2.4c-2.7-2.7-3.1-7.2-1.1-12.9c1.9-5.4,5.7-11.2,10.9-16.3
						c5.1-5.1,10.9-9,16.3-10.9c5.6-2,10.2-1.5,12.9,1.1l0,0l0,0c2.7,2.7,3.1,7.2,1.1,12.9c-1.9,5.4-5.7,11.2-10.9,16.3
						c-5.1,5.1-10.9,9-16.3,10.9C150.8,168.7,148.7,169.1,146.8,169.1z M172.8,127.2c-1.7,0-3.7,0.4-5.9,1.1
						c-5.2,1.8-10.7,5.5-15.7,10.4c-4.9,4.9-8.7,10.5-10.4,15.7c-1.7,5-1.5,8.9,0.7,11.1c2.2,2.2,6.1,2.4,11.1,0.7
						c5.2-1.8,10.7-5.5,15.7-10.4c4.9-4.9,8.7-10.5,10.4-15.7c1.7-5,1.5-8.9-0.7-11.1l0,0C176.8,127.8,175,127.2,172.8,127.2z"/>
				</g>
			</g>
			<g>
				<g>
					<path class="st3" d="M159.8,174.8c-7.7,0-13.8-12.1-13.8-27.5s6-27.5,13.8-27.5c7.7,0,13.8,12.1,13.8,27.5
						S167.5,174.8,159.8,174.8z M159.8,121.5c-6.5,0-12,11.8-12,25.8c0,14,5.5,25.8,12,25.8s12-11.8,12-25.8
						C171.8,133.3,166.3,121.5,159.8,121.5z"/>
				</g>
			</g>
			<g>
				<circle class="st3" cx="159.8" cy="147.3" r="6"/>
			</g>
			<g>
				<circle class="st4" cx="161.2" cy="145.8" r="2.1"/>
			</g>
			<g>
				<g>
					<path class="st5" d="M159.8,161.1c-15.4,0-27.5-6-27.5-13.8c0-7.7,12.1-13.8,27.5-13.8s27.5,6,27.5,13.8
						C187.3,155,175.2,161.1,159.8,161.1z M159.8,135.3c-14,0-25.8,5.5-25.8,12s11.8,12,25.8,12c14,0,25.8-5.5,25.8-12
						S173.7,135.3,159.8,135.3z"/>
				</g>
			</g>
		</g>
		<g>
			<g>
				<path class="st6" d="M105.3,131.9h-16v53c0,4.1,2.9,7.7,6.9,8.2c4.9,0.6,9.1-3.2,9.1-7.9V131.9z"/>
			</g>
			<g>
				<path class="st7" d="M97.2,131.9h-8v53c0,4.1,2.9,7.7,6.9,8.2c0.3,0,0.7,0.1,1,0.1L97.2,131.9L97.2,131.9z"/>
			</g>
			<g>
				<path class="st3" d="M99.9,157.3c-2.7,0-2.7,1.3-5.3,1.3c-0.6,0-1-0.1-1.4-0.2v26.8c0,2.2,1.8,4,4,4s4-1.8,4-4v-27.8
					C100.9,157.3,100.5,157.3,99.9,157.3z"/>
			</g>
			<g>
				<path class="st5" d="M94.6,158.6c-0.6,0-1-0.1-1.4-0.2v26.8c0,2.2,1.8,4,4,4v-31.3C96.6,158.3,95.9,158.6,94.6,158.6z"/>
			</g>
			<g>
				<path class="st8" d="M105.3,134.6H89.2c-1.5,0-2.7-1.2-2.7-2.7l0,0c0-1.5,1.2-2.7,2.7-2.7h16.1c1.5,0,2.7,1.2,2.7,2.7l0,0
					C108,133.4,106.8,134.6,105.3,134.6z"/>
			</g>
			<g>
				<path class="st6" d="M70.6,131.9h-16v53c0,4.1,2.9,7.7,6.9,8.2c4.9,0.6,9.1-3.2,9.1-7.9V131.9z"/>
			</g>
			<g>
				<path class="st7" d="M62.6,131.9h-8v53c0,4.1,2.9,7.7,6.9,8.2c0.3,0,0.7,0.1,1,0.1L62.6,131.9L62.6,131.9z"/>
			</g>
			<g>
				<path class="st9" d="M65.3,157.3c-2.7,0-2.7,1.3-5.3,1.3c-0.6,0-1-0.1-1.4-0.2v26.8c0,2.2,1.8,4,4,4s4-1.8,4-4v-27.8
					C66.2,157.3,65.8,157.3,65.3,157.3z"/>
			</g>
			<g>
				<path class="st10" d="M60,158.6c-0.6,0-1-0.1-1.4-0.2v26.8c0,2.2,1.8,4,4,4v-31.3C61.9,158.3,61.3,158.6,60,158.6z"/>
			</g>
			<g>
				<g>
					<path class="st11" d="M79.9,210.6c-0.7,0-1.3-0.6-1.3-1.3v-58.7c0-0.7,0.6-1.3,1.3-1.3c0.7,0,1.3,0.6,1.3,1.3v58.7
						C81.3,210,80.7,210.6,79.9,210.6z"/>
				</g>
			</g>
			<g>
				<g>
					<path class="st12" d="M106.6,150.6H53.3c-0.7,0-1.3-0.6-1.3-1.3s0.6-1.3,1.3-1.3h53.3c0.7,0,1.3,0.6,1.3,1.3
						C107.9,150,107.3,150.6,106.6,150.6z"/>
				</g>
			</g>
			<g>
				<path class="st8" d="M70.6,134.6H54.6c-1.5,0-2.7-1.2-2.7-2.7l0,0c0-1.5,1.2-2.7,2.7-2.7h16.1c1.5,0,2.7,1.2,2.7,2.7l0,0
					C73.3,133.4,72.1,134.6,70.6,134.6z"/>
			</g>
			<g>
				<path class="st12" d="M95.9,214.6H64c-0.7,0-1.3-0.6-1.3-1.3l0,0c0-2.9,2.4-5.3,5.3-5.3h23.9c2.9,0,5.3,2.4,5.3,5.3l0,0
					C97.2,214,96.6,214.6,95.9,214.6z"/>
			</g>
		</g>
		<g>
			<path class="st13" d="M204.2,219.4c-2.7,4.7-8.8,6.2-13.4,3.5c-4.7-2.7-6.2-8.8-3.5-13.4L204.2,219.4z"/>
			<polygon class="st14" points="196.1,201.8 218.9,163.2 218,157.3 192.9,199.9 192.9,199.9 			"/>
			<polygon class="st14" points="226.5,162.3 221,164.4 198.2,203.1 204.5,206.8 227.3,168.1 			"/>
			<polygon class="st14" points="206.6,208 209.8,209.9 209.8,209.9 234.9,167.3 229.4,169.4 			"/>
			<polygon class="st15" points="189.2,206.3 189.2,206.3 187.3,209.4 204.2,219.4 206.1,216.2 206.1,216.2 			"/>
			<polygon class="st15" points="207.3,214.1 207.3,214.1 208.6,212 208.6,212 191.7,202.1 191.7,202.1 190.4,204.2 190.4,204.2 			
				"/>
			<path class="st16" d="M221.1,161.7l5.9-2.2c0,0,0.1,0,0.1,0l0,0l0,0l0,0c0,0,0,0,0,0c0,0,0.1,0,0.1,0c0,0,0.1,0,0.1,0
				c0.1,0,0.2,0,0.3,0c0.1,0,0.1,0,0.2,0.1c0.1,0,0.2,0.1,0.2,0.1c0.1,0,0.1,0.1,0.2,0.1c0.1,0.1,0.1,0.1,0.2,0.2
				c0,0.1,0.1,0.1,0.1,0.2c0,0,0,0.1,0.1,0.1c0,0,0,0.1,0,0.1c0,0,0,0.1,0,0.1l0.9,6.2l5.9-2.2c0,0,0.1,0,0.1,0c0.1,0,0.2,0,0.3,0
				l-0.3-15.1l-1.9,3.1c-0.3,0.6-1.1,0.8-1.7,0.4c-0.6-0.3-0.8-1.1-0.4-1.7l1.9-3.1l-13.4,7.1c0.1,0.1,0.1,0.2,0.1,0.4L221.1,161.7z
				"/>
			<path class="st17" d="M232.1,152.8c0.6,0.3,1.3,0.2,1.7-0.4l1.9-3.1l0-2.3l-2.1,1.1l-1.9,3.1
				C231.3,151.7,231.5,152.5,232.1,152.8z"/>
			<polygon class="st18" points="189.2,206.3 206.1,216.2 206.1,216.2 207.3,214.1 207.3,214.1 190.4,204.2 190.4,204.2 			"/>
			<path class="st19" d="M198.2,203.1l22.8-38.7l5.5-2.1l0.8,5.8l-22.8,38.7l2.1,1.2l22.8-38.7l5.5-2.1l1-1.7l0-1.2
				c-0.1,0-0.2,0-0.3,0c0,0-0.1,0-0.1,0l-5.9,2.2l-0.9-6.2c0,0,0-0.1,0-0.1c0,0,0-0.1,0-0.1c0,0,0-0.1-0.1-0.1
				c0-0.1-0.1-0.1-0.1-0.2c-0.1-0.1-0.1-0.1-0.2-0.2c0,0-0.1-0.1-0.2-0.1c-0.1,0-0.1-0.1-0.2-0.1c-0.1,0-0.1,0-0.2-0.1
				c-0.1,0-0.2,0-0.3,0c0,0-0.1,0-0.1,0c0,0-0.1,0-0.1,0l0,0l0,0l0,0l0,0l0,0l0,0c0,0-0.1,0-0.1,0l-5.9,2.2l-0.9-6.2
				c0-0.1-0.1-0.3-0.1-0.4l-1.1,0.6l-1,1.7l0.8,5.8l-22.8,38.7L198.2,203.1z"/>
			<polygon class="st18" points="191.7,202.1 208.6,212 208.6,212 209.8,209.9 209.8,209.9 206.6,208 204.5,206.8 198.2,203.1 
				196.1,201.8 192.9,199.9 192.9,199.9 			"/>
		</g>
		<g>
			<g>
				<g>
					<path class="st20" d="M177,174.7c-0.4,0-0.8-0.4-0.8-0.8c0-5.1-0.8-11.8-3-13.9c-0.3-0.3-0.3-0.8,0-1.1c0.3-0.3,0.8-0.3,1.1,0
						c3.2,3.1,3.5,12.3,3.5,15.1C177.8,174.4,177.4,174.7,177,174.7z"/>
				</g>
			</g>
			<g>
				<path class="st3" d="M188.3,171.5c-2.9-0.4-5.1,0.2-7.1,0.8c-1.4,0.4-2.8,0.8-4.2,0.8s-2.8-0.4-4.2-0.8c-2-0.6-4.2-1.2-7.1-0.8
					c-4.8,0.7-10.5,3.5-10.5,12.6c0,8.6,2.9,20.3,10.9,25.2c2.1,1.3,4.5,0.9,7.1,0.5c1.2-0.2,2.5-0.4,3.8-0.4c1.3,0,2.6,0.2,3.8,0.4
					c1.2,0.2,2.4,0.4,3.6,0.4c1.2,0,2.4-0.2,3.5-0.9c8-4.8,10.9-16.6,10.9-25.2C198.8,175,193.1,172.2,188.3,171.5z"/>
			</g>
			<g>
				<path class="st5" d="M177,173.1L177,173.1c-1.5,0-2.8-0.4-4.2-0.8c-2-0.6-4.2-1.2-7.1-0.8c-4.8,0.7-10.5,3.5-10.5,12.6
					c0,8.6,2.9,20.3,10.9,25.2c2.1,1.3,4.5,0.9,7.1,0.5c1.2-0.2,2.5-0.4,3.8-0.4h0L177,173.1L177,173.1z"/>
			</g>
			<g>
				<path class="st21" d="M188.2,160.8c0.1-0.7,0.1-1.4,0-2.1c-0.7-0.1-1.4-0.1-2.1,0c-4.8,0.6-9.2,5-9.9,9.9
					c-0.1,0.7-0.1,1.4,0,2.1c0.7,0.1,1.4,0.1,2.1,0C183.2,170.1,187.6,165.6,188.2,160.8z"/>
			</g>
			<g>
				<circle class="st4" cx="189.8" cy="180.4" r="4"/>
			</g>
			<g>
				<path class="st22" d="M188.2,158.7c-0.6-0.1-1.3-0.1-2.1,0c-4.8,0.6-9.2,5-9.9,9.9c-0.1,0.7-0.1,1.4,0,2.1L188.2,158.7z"/>
			</g>
		</g>
		<g>
			<g>
				<path class="st23" d="M171.1,198.7l-30.2-51v-28.3c0-0.9-0.7-1.6-1.6-1.6s-1.6,0.7-1.6,1.6h-12.4c0-0.9-0.7-1.6-1.6-1.6
					c-0.9,0-1.6,0.7-1.6,1.6v28.3l-30.2,51c-1.7,2.9-1.8,6.4-0.1,9.4c1.7,3,4.7,4.7,8.1,4.7h63c3.4,0,6.4-1.8,8.1-4.7
					C172.9,205.1,172.9,201.6,171.1,198.7z"/>
			</g>
			<g>
				<path class="st24" d="M131.6,119.4h-6.2c0-0.9-0.7-1.6-1.6-1.6c-0.9,0-1.6,0.7-1.6,1.6v28.3l-30.2,51c-1.7,2.9-1.8,6.4-0.1,9.4
					c1.7,3,4.7,4.7,8.1,4.7h31.5V119.4z"/>
			</g>
			<g>
				<path class="st25" d="M165.8,201.8l-8.7-14.8c-0.3-0.5-0.8-0.8-1.3-0.8h-48.2c-0.6,0-1.1,0.3-1.3,0.8l-8.7,14.8
					c-0.6,1-0.6,2.1,0,3.1c0.6,1,1.6,1.6,2.7,1.6h63c1.1,0,2.1-0.6,2.7-1.6C166.4,204,166.4,202.8,165.8,201.8z"/>
			</g>
			<g>
				<path class="st26" d="M131.6,186.3h-24.1c-0.6,0-1.1,0.3-1.3,0.8l-8.7,14.8c-0.6,1-0.6,2.1,0,3.1c0.6,1,1.6,1.6,2.7,1.6h31.5
					V186.3z"/>
			</g>
			<g>
				<g>
					<path class="st11" d="M136.3,164.5h-9.3c-0.9,0-1.6-0.7-1.6-1.6c0-0.9,0.7-1.6,1.6-1.6h9.3c0.9,0,1.6,0.7,1.6,1.6
						C137.8,163.8,137.1,164.5,136.3,164.5z"/>
				</g>
			</g>
			<g>
				<g>
					<path class="st11" d="M136.3,172.3h-9.3c-0.9,0-1.6-0.7-1.6-1.6s0.7-1.6,1.6-1.6h9.3c0.9,0,1.6,0.7,1.6,1.6
						S137.1,172.3,136.3,172.3z"/>
				</g>
			</g>
			<g>
				<g>
					<path class="st11" d="M136.3,180.1h-9.3c-0.9,0-1.6-0.7-1.6-1.6s0.7-1.6,1.6-1.6h9.3c0.9,0,1.6,0.7,1.6,1.6
						S137.1,180.1,136.3,180.1z"/>
				</g>
			</g>
			<g>
				<circle class="st27" cx="137.8" cy="197.2" r="3.1"/>
			</g>
			<g>
				<circle class="st25" cx="120.7" cy="192.5" r="3.1"/>
			</g>
			<g>
				<circle class="st27" cx="148.7" cy="194.1" r="1.6"/>
			</g>
			<g>
				<circle class="st25" cx="125.4" cy="198.7" r="1.6"/>
			</g>
			<g>
				<circle class="st25" cx="111.4" cy="195.6" r="1.6"/>
			</g>
			<g>
				<path class="st28" d="M141,113.2h-18.7c-1.7,0-3.1,1.4-3.1,3.1l0,0c0,1.7,1.4,3.1,3.1,3.1H141c1.7,0,3.1-1.4,3.1-3.1l0,0
					C144.1,114.6,142.7,113.2,141,113.2z"/>
			</g>
		</g>
		<g>
			<g>
				<path class="st27" d="M43.4,67.7l-0.9-0.3c-0.1,0-0.2,0-0.4,0c-0.1,0.1-0.2,0.2-0.2,0.3l-5.6,19.3c0,0.1,0,0.3,0,0.4
					c0.1,0.1,0.2,0.2,0.3,0.2l0.9,0.3c0.1,0,0.2,0,0.4,0c0.1-0.1,0.2-0.2,0.2-0.3l5.6-19.3c0-0.1,0-0.3,0-0.4
					C43.7,67.8,43.6,67.7,43.4,67.7z"/>
				<path class="st27" d="M35.1,71.4c0-0.1,0-0.2-0.1-0.3l-0.7-0.7c-0.1-0.1-0.2-0.1-0.3-0.1c-0.1,0-0.2,0.1-0.3,0.1l-7,7
					c-0.1,0.1-0.1,0.2-0.1,0.3s0,0.2,0.1,0.3l7,7c0.1,0.1,0.2,0.1,0.3,0.1c0.1,0,0.2,0,0.3-0.1l0.7-0.7c0.1-0.1,0.1-0.2,0.1-0.3
					c0-0.1,0-0.2-0.1-0.3L29,77.7l5.9-5.9C35,71.7,35.1,71.6,35.1,71.4z"/>
				<path class="st27" d="M53.6,77.3l-7-7c-0.1-0.1-0.2-0.1-0.3-0.1c-0.1,0-0.2,0.1-0.3,0.1l-0.7,0.7c-0.1,0.1-0.1,0.2-0.1,0.3
					c0,0.1,0,0.2,0.1,0.3l5.9,5.9l-5.9,5.9c-0.1,0.1-0.1,0.2-0.1,0.3c0,0.1,0,0.2,0.1,0.3l0.7,0.7c0.1,0.1,0.2,0.1,0.3,0.1
					c0.1,0,0.2,0,0.3-0.1l7-7c0.1-0.1,0.1-0.2,0.1-0.3C53.7,77.5,53.7,77.4,53.6,77.3z"/>
			</g>
		</g>
		<g>
			<path class="st29" d="M112.8,209.2c-1.4-0.4-2.7-0.4-3.9-0.1c-0.8,0.2-1.7,0-2.3-0.5l-1.9-1.5c-1-0.8-1.3-2.2-0.8-3.4
				c0.5-1.1,0.9-2.2,1.2-3.4c0.5-2,2.6-3.1,4.5-2.4c2,0.8,4.3,0.7,6.4-0.3c3.6-1.9,5.2-6.5,3.6-10.2c-1.8-4-6.5-5.8-10.5-3.9
				c-0.3,0.2-0.7,0.4-1.1,0.7c-1.8,1.3-4.2,0.8-5.3-1.1c-0.7-1.2-1.6-2.3-2.5-3.4c-1.2-1.4-1.4-3.4-0.5-5.1l1.9-3.8
				c0.7-1.4,2.1-2.5,3.6-2.6c0.8-0.1,1.6-0.3,2.4-0.7c2.5-1.1,4.3-3.5,4.6-6.2c0.6-5.2-3.8-9.6-9-8.8c-3.3,0.5-6,3.2-6.6,6.5
				c-0.3,1.6,0,3.1,0.6,4.5c0.6,1.4,0.7,2.9,0,4.3l-1.5,3c-1.1,2.1-3.4,3.1-5.6,2.5c-1.3-0.4-3.6-0.7-5.1-0.8
				c-1-0.1-1.9-0.8-2.1-1.9l-1.5-6.3c-0.2-0.8,0-1.6,0.6-2.2c1.2-1.4,1.9-3.4,1.5-5.5c-0.5-2.5-2.5-4.6-5-5.1c-4.2-0.9-8,2.3-8,6.4
				c0,2.8,1.8,5.2,4.3,6.1c0.8,0.3,1.4,0.9,1.6,1.8l1.2,5.1c0.3,1.2-0.4,2.4-1.6,2.9c-1.7,0.6-3.3,1.4-4.7,2.4
				c-1.1,0.7-2.5,0.7-3.5-0.1c-1.1-0.9-1.3-2.3-0.8-3.5c0.8-1.9,1.1-4.2,0.6-6.5c-0.9-4-4.2-7.1-8.2-7.9c-7.4-1.4-13.7,5-12.3,12.4
				c0.8,4.2,4.2,7.5,8.3,8.3c1.8,0.3,3.6,0.2,5.2-0.3c1.1-0.4,2.3,0,3.1,1l0.5,0.7c0.8,0.9,0.8,2.2,0.2,3.3c-1.5,2.6-2.6,5.5-3,8.6
				c-0.2,1.3-1.2,2.3-2.5,2.4l-2.5,0.2c-0.9,0.1-1.7-0.3-2.3-0.9c-0.9-0.9-2.2-1.5-3.7-1.7c-2.3-0.2-4.6,1.1-5.7,3.3
				c-1.7,3.5,0.3,7.4,3.8,8.4c2.6,0.7,5.1-0.5,6.5-2.6c0.5-0.8,1.3-1.2,2.2-1.3l2.1-0.2c1.3-0.1,2.5,0.7,2.9,1.9
				c0.9,2.7,2.3,5.2,4.1,7.4c0.6,0.8,0.6,1.9-0.1,2.6c-0.6,0.6-1.4,0.8-2.2,0.5c-0.9-0.3-1.9-0.4-2.9-0.3c-3.3,0.3-6,2.9-6.4,6.2
				c-0.7,4.9,3.6,9,8.6,8.1c2.6-0.5,4.7-2.5,5.5-5c0.4-1.2,0.4-2.4,0.2-3.5c-0.1-0.6,0.1-1.2,0.5-1.7l1-1.1c0.6-0.7,1.6-0.9,2.4-0.4
				c0.6,0.3,1.3,0.7,2,1c1.4,0.6,2.2,2.1,2.1,3.7c-0.1,0.8,0,1.5,0.1,2.3c0.7,3.3,3.5,5.8,6.9,6.2c4.7,0.5,8.7-3.2,8.7-7.8
				c0-0.5,0-1-0.1-1.5c-0.3-1.6,0.3-3.2,1.7-3.9c1.3-0.7,2.5-1.6,3.6-2.5c0.7-0.6,1.6-0.9,2.5-0.7c1.8,0.5,2.6,2.2,2,3.7
				c-0.5,1.3-0.7,2.8-0.4,4.4c0.6,3.6,3.6,6.5,7.2,7c5.5,0.7,10.2-3.8,9.7-9.3C118.7,213.1,116.2,210.2,112.8,209.2z"/>
			<circle class="st30" cx="87.6" cy="184" r="1.3"/>
			<circle class="st30" cx="73.1" cy="199.7" r="1.3"/>
			<circle class="st30" cx="99.4" cy="203.7" r="1.3"/>
			<circle class="st30" cx="108.6" cy="190.6" r="1.3"/>
			<circle class="st30" cx="94.1" cy="178.7" r="1.3"/>
			<circle class="st30" cx="85" cy="206.3" r="6.6"/>
			<circle class="st30" cx="74.5" cy="187.9" r="3.9"/>
			<circle class="st30" cx="96.8" cy="191.9" r="3.9"/>
			<circle class="st31" cx="85.6" cy="210.9" r="2"/>
			<circle class="st31" cx="62" cy="222.7" r="2"/>
			<circle class="st31" cx="51.5" cy="195.2" r="2"/>
			<circle class="st31" cx="50.2" cy="167.6" r="2"/>
			<circle class="st31" cx="75.1" cy="157.1" r="2"/>
			<circle class="st31" cx="106.6" cy="163.7" r="2"/>
			<circle class="st31" cx="110.5" cy="222.7" r="2"/>
			<circle class="st31" cx="115.8" cy="187.3" r="2"/>
			<circle class="st31" cx="86.9" cy="222.7" r="2"/>
			<circle class="st31" cx="97.4" cy="189.9" r="2"/>
			<circle class="st31" cx="73.8" cy="189.9" r="2"/>
		</g>
		<g>
			<g>
				<g>
					<g>
						<path class="st32" d="M84.6,326c7.9,3,16.4,4.4,24.8,5.4c8,0.9,16,1.3,24.1,1.4c11.8,0.1,23.5-0.5,34.8-4.5
							c3.2-1.1,6.7-2.5,9.3-4.8c0,1.6,0,3.3,0,4.9c0,0.4,0.2,1.3,0,1.7c-0.5,1.1-2.6,1.8-3.6,2.2c-0.3,0.1-1.5,0.2-1.7,0.5
							c-0.1,0.2,0,1.1,0,1.3c0,1.8,0.1,3.7,0.1,5.5c0,1.9,0.1,3.9,0.1,5.8c0,0.3,0.1,0.9,0,1.2c-0.3,0.9-1.8,1.7-2.5,2.2
							c-0.3,0.2-1.1,0.5-1.2,0.8c-0.1,0.3,0.3,1.3,0.4,1.7c0.5,1.9,1,3.8,1.5,5.7c0.4,1.4,0.9,2.9,1.1,4.3c0.3,2.1-1.4,3.5-3.3,3.6
							c0.7,3.1,1.4,6.1,2.1,9.2c0.3,1.1,0.7,2.3,0.8,3.4c0.1,1.7-1.7,2.7-3.2,2.9c0.9,3.5,1.9,7,2.8,10.5c0.2,0.8,0.4,1.6,0.7,2.5
							c0.2,0.8,0.3,0.8-0.3,1.5c-2.1,2.6-4.9,4.7-7.7,6.4c-1.1,0.7-2.2,1.3-3.3,1.9c-0.5,0.3-1.3,0.5-1.7,0.8c-0.4,0.3-0.7,1-1,1.5
							c-0.6,0.9-1.3,1.8-1.9,2.6c-1.1,1.4-2.3,2.6-3.6,3.8c-2.5,2.2-5.9,4.9-9.4,5.3c-6.7,0.8-13.5,0.3-20.2-0.3
							c-1.7-0.2-3.5-0.2-5.1-0.6c-2.6-0.6-5.2-2.9-7-4.7c-1.6-1.7-3-3.6-4-5.6c-0.2-0.3-0.3-0.9-0.5-1.2c-0.4-0.5-1.6-0.8-2.2-1.1
							c-1-0.5-2-1-3-1.6c-2.5-1.4-5-3-7.3-4.7c-0.7-0.5-2-1.3-2.4-2c-0.5-1-0.1-2.9,0.1-3.9c0.2-1.5,0.6-3,1-4.5
							c0.4-1.3,0.8-2.5,1.3-3.8c0.1-0.3,0.7-1.3,0.6-1.5c-0.1-0.4-1.8-1.1-2.2-1.4c-0.5-0.3-0.5-0.3-0.7-0.8c-0.2-0.8-0.1-1.9,0-2.7
							c0.2-3.3,1.1-6.5,2.2-9.5c0.2-0.5,0.4-1.1,0.7-1.6c-1.4-0.5-3.5-1.7-3.4-3.5c0.1-1.1,0.6-2.3,0.9-3.3c0.8-3.1,1.7-6.1,2.5-9.2
							c-1.8-0.3-3.2-1.3-3.2-3.2c0-2.1,0.1-4.1,0.1-6.2c0-1.2,0-2.3,0.1-3.5c0-0.3,0.2-1.5,0-1.7c-0.3-0.4-2.1-0.7-2.6-0.8
							c-0.9-0.3-1.7-0.7-2.6-1.1c-0.5-0.3-1.2-0.4-1.3-0.9c-0.3-0.9,0-2.5,0-3.5C84.6,327.9,84.6,326.9,84.6,326z"/>
						<path class="st33" d="M84.6,332.3c16.8,5.8,35.2,6.9,52.8,6.5c4.6-0.1,8.9-0.4,13.4-1.2c7.5-1.4,15-3,22.2-5.4
							c1.1-0.4,2.9-0.7,3.9-1.5c1.7-1.3,1-5.5,0.6-7.3c-5.3,4.1-12.1,6.2-18.6,7.4c-7.7,1.5-15.5,1.9-23.3,1.9
							c-12,0-24.1-1.1-35.9-2.9c-5.1-0.8-10.1-2.3-15-3.9C84.6,328.1,84.6,330.2,84.6,332.3z"/>
					</g>
					<path class="st34" d="M90.9,337v6.2c26,10.6,65,6,65,6c13.1-2.8,16.5-4.7,16.5-4.7V337c-27.5,7.4-47.6,5.5-47.6,5.5
						C105,341.9,90.9,337,90.9,337z"/>
					<path class="st34" d="M92.8,354.8c-0.7,2.3-2.2,6.5-2.2,6.5c19.4,9,54.2,6.6,54.2,6.6c16.5-1.4,27.1-6.4,27.1-6.4
						c-0.4-3.5-2-6.7-2-6.7c-24.4,6.3-47.3,4.7-47.3,4.7C107.5,359.1,92.8,354.8,92.8,354.8z"/>
					<g>
						<path class="st34" d="M93.1,369.6c-2.1,4.1-2,6.9-2,6.9c22,8.3,43.8,6.6,43.8,6.6c25-1.2,36.4-6.7,36.4-6.7
							c-0.5-3.2-1.8-6-1.8-6c-25.2,5.9-49.4,4.5-49.4,4.5C107.1,374,93.1,369.6,93.1,369.6z"/>
						<path class="st34" d="M92.6,369.3l0.4,0.2c-0.6,1.3-1.2,2.8-1.2,2.8"/>
					</g>
					<path class="st34" d="M93.1,384.7c-2.7,4.1-2.3,6.6-2.3,6.6c27.7,8.9,54,6.4,54,6.4c18.4-2,26.8-6.3,26.8-6.3
						c0-2.5-2-6.6-2-6.6c-31.1,7.5-47.4,4.8-47.4,4.8C107.8,388.3,93.1,384.7,93.1,384.7z"/>
				</g>
				<g>
					<g>
						<path class="st35" d="M44.2,189.5c-2.5,0.8-12.4,3.7-9.7,8.7c0.8,1.5,3.2,1.6,4.3,2.5c1.6,1.5,2.7,5,4,7
							c2.8,4.4,5.9,8.5,9.2,12.5c4.5,5.4,10.1,10.3,13.9,16.3c3.2,5.1,4.6,10.5,5.5,16.3c2,13.5,2,27.2,2.9,40.8
							c0.5,7.6,0.8,16.9,3.7,24.1c2.7,6.5,9.1,9.6,15.4,11.6c15.3,5,31.6,4.6,47.4,3.9c8.9-0.4,19.3-0.2,27.9-3.3
							c18.3-6.5,20.2-21.4,21.5-38.6c1-14-0.8-28.4,3-42.1c4.2-15.3,16.4-24.1,25.2-36.3c2.5-3.4,4-7.1,6-10.7
							c0.3-0.6,0.3-1.5,0.7-2.1c0.9-1.3,2.9-1.4,3.3-3.2c1.1-4.6-13.7-9.7-14.6-5.6c3.2,0.4,6.5,1.2,9.4,2.8
							c-4.1,3.7-12,4.3-17.2,5.1c-8.6,1.3-17.4,1.9-26.1,2.6c-13.6,1-27.3,1.7-40.9,1.5c-24-0.4-48.2,0-72.1-2.5
							c-7.6-0.8-15.8-1.5-23.1-3.9c-0.8-0.3-2.8-0.4-3.2-1.4c-0.7-2,6.7-3.1,7.9-3.3C48.5,189.1,46.6,189,44.2,189.5z"/>
						<path class="st36" d="M47.5,203.5c27.7,5.8,56.6,4.6,84.7,4.7c29.2,0.1,59.4-0.3,87.9-7.4c-4.1,13.1-15.9,20.8-22.9,32
							c-8.6,13.8-9.4,29.1-9.5,44.9c-0.1,15.1,1.3,31.6-11.2,42.5c-12,10.4-33.4,9.3-48.2,9.1c-13.4-0.2-35,0.2-43.6-12.1
							c-7.4-10.4-5-28.7-5.6-40.4c-0.8-15.6-1.4-31.7-10.9-44.8C62.1,223.7,45.7,215.1,47.5,203.5z"/>
					</g>
					<ellipse class="st37" cx="131.2" cy="323.4" rx="37.4" ry="5.9"/>
				</g>
			</g>
			<g>
				<g>
					<path class="st27" d="M123.6,267.1c2-1.2,3.7-2.7,5.3-4.4l5.5,3.2l5-8.7l-5.5-3.2c0.7-2.1,1.1-4.4,1.2-6.8l6.3-1.1l-1.8-9.9
						l-6.3,1.1c-0.9-2.2-2-4.2-3.5-6l4.1-4.9l-7.7-6.5l-4.1,4.9c-2-1.1-4.2-1.9-6.5-2.4V216h-10.1v6.4c-2.3,0.5-4.5,1.3-6.5,2.4
						l-4.1-4.9l-7.7,6.5l4.1,4.9c-1.4,1.8-2.6,3.8-3.5,6l-6.3-1.1l-1.8,9.9l6.3,1.1c0.1,2.4,0.5,4.6,1.2,6.8l-5.5,3.2l5,8.7l5.5-3.2
						c1.5,1.7,3.3,3.2,5.3,4.4l-2.2,6l9.5,3.5l2.2-6c1.1,0.2,2.3,0.2,3.4,0.2s2.3-0.1,3.4-0.2l2.2,6l9.5-3.5L123.6,267.1z
						 M110.7,259.2c-7.1,0-12.9-5.8-12.9-12.9c0-7.1,5.8-12.9,12.9-12.9c7.1,0,12.9,5.8,12.9,12.9
						C123.6,253.4,117.8,259.2,110.7,259.2z"/>
					<path class="st27" d="M167,274.7l-4.4,1.4c-0.8-1.4-1.9-2.7-3-3.9l2.4-3.9l-6.1-3.8l-2.4,3.9c-1.5-0.6-3.2-0.9-4.8-1l-0.6-4.5
						l-7.2,1l0.6,4.5c-1.6,0.6-3,1.4-4.4,2.3l-3.4-3.1l-4.8,5.4l3.4,3.1c-0.8,1.4-1.5,3-1.9,4.6l-4.6-0.2l-0.3,7.2l4.6,0.2
						c0.3,1.7,0.8,3.2,1.5,4.7l-3.6,2.8l4.4,5.7l3.6-2.8c1.3,1.1,2.7,1.9,4.2,2.6l-1,4.5l7.1,1.5l1-4.5c0.8,0,1.6-0.1,2.5-0.2
						c0.8-0.1,1.6-0.3,2.4-0.5l2.1,4l6.4-3.4l-2.1-4c1.3-1.1,2.4-2.3,3.3-3.7l4.2,1.7l2.7-6.7l-4.2-1.7c0.3-1.6,0.4-3.2,0.2-4.9
						l4.4-1.4L167,274.7z M148.8,294c-5,0.7-9.7-2.8-10.4-7.9c-0.7-5,2.8-9.7,7.9-10.4c5-0.7,9.7,2.8,10.4,7.9
						C157.3,288.6,153.8,293.3,148.8,294z"/>
					<path class="st27" d="M176.8,249.6l0.2-5.7l-3.6-0.1c-0.2-1.3-0.6-2.5-1.2-3.7l2.8-2.2l-3.5-4.5l-2.8,2.2c-1-0.8-2.1-1.5-3.3-2
						l0.7-3.5l-5.6-1.2l-0.7,3.5c-1.3,0-2.6,0.2-3.9,0.6l-1.7-3.2l-5,2.7l1.7,3.2c-1,0.9-1.9,1.8-2.6,2.9l-3.4-1.3l-2.1,5.3l3.4,1.3
						c-0.2,1.3-0.3,2.6-0.1,3.9l-3.4,1.1l1.8,5.4l3.4-1.1c0.7,1.2,1.5,2.2,2.4,3.1l-1.9,3.1l4.9,3l1.9-3.1c1.2,0.4,2.5,0.7,3.8,0.8
						l0.5,3.6l5.6-0.8l-0.5-3.6c0.6-0.2,1.2-0.5,1.8-0.8c0.6-0.3,1.1-0.7,1.6-1l2.7,2.4l3.8-4.3l-2.7-2.4c0.6-1.1,1.1-2.4,1.4-3.6
						L176.8,249.6z M163.2,252.7c-3.5,1.9-8,0.6-9.9-3c-1.9-3.5-0.6-8,3-9.9c3.5-1.9,8-0.6,9.9,3
						C168.1,246.4,166.7,250.8,163.2,252.7z"/>
				</g>
			</g>
		</g>
		<g>
			<g>
				<path class="st11" d="M64.8,163.3l-1.9-2.6c-0.4-0.5-1-0.6-1.5-0.2l-4.9,3.6c-0.5,0.4-0.6,1-0.2,1.5l1.9,2.6
					c0.4,0.5,0.9,0.8,1.4,0.8c0.5,0.1,1.1,0,1.6-0.4l3.2-2.3c0.5-0.3,0.8-0.8,0.8-1.4C65.3,164.3,65.1,163.8,64.8,163.3z"/>
			</g>
			<g>
				<g>
					<path class="st12" d="M61.6,155.3c-0.4-0.1-0.7-0.1-1,0.1l-8.6,6.4c-0.3,0.2-0.5,0.6-0.4,1c0,0.4,0.3,0.7,0.6,0.9l4.8,2.8
						l6.6-4.9l-1.2-5.5C62.2,155.7,62,155.4,61.6,155.3z"/>
				</g>
				<g>
					<path class="st11" d="M52.1,163.6l4.8,2.8l3.3-2.4l-4-5.4l-4.3,3.2c-0.3,0.2-0.5,0.6-0.4,1C51.5,163.1,51.8,163.5,52.1,163.6z"
						/>
				</g>
			</g>
			<g>
				<path class="st11" d="M44.1,138.7l-3.4,2.5c-0.1,0-0.1,0-0.2,0l-6.2-8.4c0-0.1,0-0.1,0-0.2l3.4-2.5c0.1,0,0.1,0,0.2,0l6.2,8.4
					C44.2,138.5,44.1,138.6,44.1,138.7z"/>
			</g>
			<g>
				<g>
					<path class="st11" d="M62.3,186.8l-4.6-0.7c-0.6-0.1-1-0.6-0.9-1.2c0.1-0.6,0.6-1,1.2-0.9l4.6,0.7c0.6,0.1,1.1-0.1,1.6-0.4
						l2.8-2.1c0.5-0.4,1.1-0.3,1.5,0.2c0.4,0.5,0.3,1.1-0.2,1.5l-2.8,2.1C64.5,186.7,63.4,187,62.3,186.8z"/>
				</g>
			</g>
			<g>
				<path class="st12" d="M45.1,157.1c-0.5,1.1-0.8,2.3-1,3.5c-1,6.6,2.5,12.9,8.2,15.7l-2.8,5.8c-8.2-4-13.3-13-11.8-22.5
					c0.3-1.9,0.8-3.8,1.6-5.6L45.1,157.1z"/>
			</g>
			<g>
				<path class="st11" d="M77.4,166.6l-2.6-3.5c-0.4-0.5-1-0.6-1.5-0.2l-17,12.6c-0.4,0.3-0.5,0.8-0.4,1.2l1.4,4.3
					c0.1,0.3,0.4,0.6,0.7,0.7c0.1,0,0.1,0,0.2,0c0.3,0,0.6,0,0.8-0.2l18.1-13.4C77.7,167.7,77.8,167.1,77.4,166.6z"/>
			</g>
			<g>
				<path class="st12" d="M78,177.5l-2.6-3.5c-0.4-0.5-1-0.6-1.5-0.2l-8.3,6.2c-0.5,0.4-0.6,1-0.2,1.5l2.6,3.5
					c0.2,0.2,0.4,0.4,0.7,0.4c0.3,0,0.6,0,0.8-0.2l8.3-6.2C78.2,178.7,78.3,178,78,177.5z"/>
			</g>
			<g>
				<path class="st38" d="M55,174.9c-2.9-0.4-5.7,1.6-6.1,4.5l-1.8,11.7c-0.1,0.6,0.3,1.1,0.9,1.2c0.6,0.1,1.1-0.3,1.2-0.9l6.4,1
					c-0.1,0.6,0.3,1.1,0.9,1.2c0.6,0.1,1.1-0.3,1.2-0.9l1.8-11.7C59.9,178,57.9,175.3,55,174.9z"/>
			</g>
			<g>
				<path class="st38" d="M62.1,155.6l-13.3-17.9c-1.1-1.4-3.1-1.7-4.5-0.7l-5.2,3.8c-0.7,0.5-1.1,1.3-1.3,2.1
					c-0.1,0.9,0.1,1.7,0.6,2.4l1.4,1.9c0.4,0.5,1,0.6,1.5,0.2l5.9,8c0,0,0,0,0,0c-0.5,0.4-0.6,1-0.2,1.5l4.7,6.2
					c0.2,0.2,0.4,0.4,0.7,0.4c0.3,0,0.6,0,0.8-0.2l8.6-6.4c0.2-0.2,0.4-0.4,0.4-0.7S62.2,155.9,62.1,155.6z"/>
			</g>
			<g>
				<path class="st12" d="M47.1,157.1l4.7,6.2c0.2,0.2,0.4,0.4,0.7,0.4c0.3,0,0.6,0,0.8-0.2l4.3-3.2L41.7,139l-2.6,1.9
					c-0.7,0.5-1.1,1.3-1.3,2.1c-0.1,0.9,0.1,1.7,0.6,2.4l1.4,1.9c0.4,0.5,1,0.6,1.5,0.2l5.9,8c0,0,0,0,0,0
					C46.8,155.9,46.7,156.6,47.1,157.1z"/>
			</g>
			<g>
				<path class="st12" d="M60,191.9l-14.9-2.2c-2.3-0.4-4.5,1.3-4.9,3.6l-0.3,2.1c-0.1,0.6,0.3,1.1,0.9,1.2l21.2,3.2
					c0.6,0.1,1.1-0.3,1.2-0.9l0.3-2.1C64,194.4,62.4,192.3,60,191.9z"/>
			</g>
			<g>
				<circle class="st11" cx="44.4" cy="151.5" r="6.4"/>
			</g>
			<g>
				<circle class="st12" cx="44.4" cy="151.5" r="3.2"/>
			</g>
			<g>
				<circle class="st11" cx="54.2" cy="180.2" r="2.1"/>
			</g>
			<g>
				<path class="st12" d="M39.6,130.8l-5.2,3.8c-0.5,0.4-1.1,0.3-1.5-0.2l-1.3-1.7c-0.4-0.5-0.3-1.1,0.2-1.5l5.2-3.8
					c0.5-0.4,1.1-0.3,1.5,0.2l1.3,1.7C40.2,129.8,40.1,130.5,39.6,130.8z"/>
			</g>
			<g>
				<path class="st11" d="M34.5,129.3l-2.6,1.9c-0.5,0.4-0.6,1-0.2,1.5l1.3,1.7c0.4,0.5,1,0.6,1.5,0.2l2.6-1.9L34.5,129.3z"/>
			</g>
		</g>
		<g>
			<path class="st39" d="M221.4,187.5c0.1,0.8,0.7,1.5,1.5,1.7l9.1,2.3c0.4,0.1,0.4,0.7,0,0.8c-2.4,0.6-6.9,1.7-9.1,2.3
				c-0.8,0.2-1.4,0.9-1.5,1.7l-2.4,17.7c-0.1,0.5-0.8,0.5-0.8,0l-2.4-17.7c-0.1-0.8-0.7-1.5-1.5-1.7c-2.2-0.6-6.7-1.7-9.1-2.3
				c-0.4-0.1-0.4-0.7,0-0.8c2.4-0.6,6.9-1.7,9.1-2.3c0.8-0.2,1.4-0.9,1.5-1.7l2.4-17.7c0.1-0.5,0.8-0.5,0.8,0
				C219.7,175.3,221.2,186.4,221.4,187.5z"/>
			<path class="st40" d="M219,213.9l2.1-15.6c-2.3-4.7-4-9.5-5.1-13l-0.3,2.1c-0.1,0.8-0.7,1.5-1.5,1.7c-2.2,0.6-6.7,1.7-9.1,2.3
				c-0.4,0.1-0.4,0.7,0,0.8c2.4,0.6,6.9,1.7,9.1,2.3c0.8,0.2,1.4,0.9,1.5,1.7l2.4,17.7C218.2,214.4,218.9,214.4,219,213.9z"/>
		</g>
		<g>
			<path class="st41" d="M94.5,115.4c0.7,2.7,0.8,5.7,0,8.6c-1.9,6.7-14.8,20.7-16.2,22.2c-0.6,0.6-1.5,0.8-2.3,0.6
				s-1.5-0.9-1.7-1.7c-0.4-2-4.3-20.7-2.5-27.3c0.8-2.9,2.3-5.5,4.4-7.4l9.2,2.5L94.5,115.4z"/>
			<g>
				<path class="st42" d="M85.3,112.9l9.3,2.5c0.7,2.7,0.8,5.7,0,8.6c-1.9,6.7-14.8,20.7-16.2,22.2c-0.6,0.6-1.5,0.8-2.3,0.6
					L85.3,112.9z"/>
				<path class="st42" d="M87.2,114.7l-2.5,9.1c-0.2,0.6-0.6,1.1-1.1,1.4c-0.5,0.3-1.2,0.4-1.8,0.3l0,0c-1.2-0.4-2-1.6-1.6-2.9
					l2.5-9.1c0.3-1.3,1.6-2,2.8-1.6l0,0C86.9,112.1,87.6,113.4,87.2,114.7z"/>
			</g>
			<path class="st43" d="M85.6,111.8c1.3,0.3,2,1.6,1.6,2.9l-2.5,9.1c-0.2,0.6-0.6,1.1-1.1,1.4c-0.5,0.3-1.2,0.4-1.8,0.3l0,0
				L85.6,111.8L85.6,111.8L85.6,111.8z"/>
			<path class="st44" d="M71.2,84.4c-14.6,8.3-12.1,23.2-12.3,23.8c0,0.8,0.5,1.6,1.2,2c0.7,0.4,1.6,0.4,2.3,0
				c8.8-4,14.4-6.6,13.9-6.4L73.7,83L71.2,84.4L71.2,84.4L71.2,84.4z"/>
			<path class="st45" d="M97.6,109.6c0.3,0.4,9,13.4,8.4,12.5c0.9,1.5,3,1.6,4,0.1c0.2-0.6,9.8-12.3,1.6-26.8l-1.4-2.5L97.6,109.6z"
				/>
			<path class="st46" d="M100.6,111c-1.5,2.3-3.1,4.6-4.6,6.8c-0.5,0.9-1.6,1.2-2.6,1l-18.2-5c-1-0.3-1.7-1.2-1.7-2.2
				c-0.1-2.6-0.3-5.4-0.4-8.2c-0.1-1.6,6.3-1.5,6.2-3.2l17.6,4.8C95.9,106.5,101.5,109.6,100.6,111z"/>
			<path class="st44" d="M100.6,111c-1.5,2.3-3.1,4.6-4.6,6.8c-0.5,0.9-1.6,1.2-2.6,1l-9.1-2.5l3.8-13.7l8.8,2.4
				C95.9,106.5,101.5,109.6,100.6,111z"/>
			<path class="st47" d="M115.7,59.3c2.2,8.1,2.1,15.7-0.2,23.6c-2.7,9.3-9.5,19.8-14.9,28.1l-13.7-3.8l-13.8-3.8
				c-0.5-9.9-0.9-22.4,1.5-31.7c2-8,5.9-14.6,11.9-20.4l5-0.8c2.1,3.5,5.4,5.9,9.1,7c3.7,1,7.7,0.6,11.3-1.4L115.7,59.3z"/>
			<path class="st48" d="M115.7,59.3c2.2,8.1,2.1,15.7-0.2,23.6c-2.7,9.3-9.5,19.8-14.9,28.1l-13.7-3.8l13.6-49.9
				c3.7,1,7.7,0.6,11.3-1.4L115.7,59.3z"/>
			<path class="st49" d="M98.1,66.3c-6.2-1.7-12.8,2-14.5,8.2c-1.7,6.3,2,12.7,8.2,14.5l0,0c6.2,1.7,12.8-2,14.5-8.2
				C108.1,74.5,104.4,68,98.1,66.3z"/>
			<path class="st46" d="M115.7,59.3c-0.3,0.2-1.3,0.7-1.6,0.9c-4.8,2.6-10,3.1-14.8,1.8c-4.8-1.3-9.1-4.4-11.9-9.1
				c-0.2-0.3-0.8-1.2-1-1.6c5-4.8,11.3-8.9,17.4-12.1c0.5-0.3,1.1-0.4,1.7-0.2c0.6,0.2,1.1,0.5,1.4,1.1
				C110.6,45.9,113.9,52.7,115.7,59.3z"/>
			<path class="st50" d="M92.2,96.5c-0.3,1.3-1.6,2-2.9,1.6c-1.3-0.3-2-1.6-1.6-2.9c0.3-1.3,1.6-2,2.9-1.6
				C91.8,93.9,92.6,95.3,92.2,96.5z"/>
			<path class="st44" d="M115.7,59.3c-0.3,0.2-1.3,0.7-1.6,0.9c-4.8,2.6-10,3.1-14.8,1.8l6.3-23c0.6,0.2,1.1,0.5,1.4,1.1
				C110.6,45.9,113.9,52.7,115.7,59.3z"/>
			<path class="st51" d="M106.3,80.8c-1.7,6.2-8.2,10-14.5,8.2l0,0l6.2-22.7C104.4,68,108.1,74.5,106.3,80.8z"/>
			<path class="st52" d="M92.2,96.5c-0.3,1.3-1.6,2-2.9,1.6l1.2-4.5C91.8,93.9,92.6,95.3,92.2,96.5z"/>
		</g>
		<g>
			<path class="st39" d="M202.6,148.1c0.1,0.5,0.4,0.9,0.9,1l5.4,1.3c0.3,0.1,0.3,0.4,0,0.5c-1.4,0.4-4.1,1-5.4,1.3
				c-0.5,0.1-0.8,0.5-0.9,1l-1.4,10.5c0,0.3-0.5,0.3-0.5,0l-1.4-10.5c-0.1-0.5-0.4-0.9-0.9-1c-1.3-0.3-4-1-5.4-1.3
				c-0.3-0.1-0.3-0.4,0-0.5c1.4-0.4,4.1-1,5.4-1.3c0.5-0.1,0.8-0.5,0.9-1l1.4-10.5c0-0.3,0.5-0.3,0.5,0
				C201.6,140.9,202.5,147.4,202.6,148.1z"/>
			<path class="st40" d="M201.1,163.7l1.3-9.2c-1.4-2.8-2.4-5.6-3-7.7l-0.2,1.3c-0.1,0.5-0.4,0.9-0.9,1c-1.3,0.3-4,1-5.4,1.3
				c-0.3,0.1-0.3,0.4,0,0.5c1.4,0.4,4.1,1,5.4,1.3c0.5,0.1,0.8,0.5,0.9,1l1.4,10.5C200.7,164,201.1,164,201.1,163.7z"/>
		</g>
		<g>
			<path class="st39" d="M25.5,110.3c0.1,0.8,0.7,1.5,1.5,1.7l9.1,2.3c0.4,0.1,0.4,0.7,0,0.8c-2.4,0.6-6.9,1.7-9.1,2.3
				c-0.8,0.2-1.4,0.9-1.5,1.7L23,136.7c-0.1,0.5-0.8,0.5-0.8,0L19.8,119c-0.1-0.8-0.7-1.5-1.5-1.7c-2.2-0.6-6.7-1.7-9.1-2.3
				c-0.4-0.1-0.4-0.7,0-0.8c2.4-0.6,6.9-1.7,9.1-2.3c0.8-0.2,1.4-0.9,1.5-1.7l2.4-17.7c0.1-0.5,0.8-0.5,0.8,0
				C23.8,98.1,25.3,109.2,25.5,110.3z"/>
			<path class="st40" d="M23,136.7l2.1-15.6c-2.3-4.7-4-9.5-5.1-13l-0.3,2.1c-0.1,0.8-0.7,1.5-1.5,1.7c-2.2,0.6-6.7,1.7-9.1,2.3
				c-0.4,0.1-0.4,0.7,0,0.8c2.4,0.6,6.9,1.7,9.1,2.3c0.8,0.2,1.4,0.9,1.5,1.7l2.4,17.7C22.3,137.1,23,137.1,23,136.7z"/>
		</g>
		<g>
			<path class="st39" d="M145.1,72.4c0.1,0.8,0.7,1.5,1.5,1.7l9.1,2.3c0.4,0.1,0.4,0.7,0,0.8c-2.4,0.6-6.9,1.7-9.1,2.3
				c-0.8,0.2-1.4,0.9-1.5,1.7l-2.4,17.7c-0.1,0.5-0.8,0.5-0.8,0l-2.4-17.7c-0.1-0.8-0.7-1.5-1.5-1.7c-2.2-0.6-6.7-1.7-9.1-2.3
				c-0.4-0.1-0.4-0.7,0-0.8c2.4-0.6,6.9-1.7,9.1-2.3c0.8-0.2,1.4-0.9,1.5-1.7l2.4-17.7c0.1-0.5,0.8-0.5,0.8,0
				C143.4,60.2,145,71.3,145.1,72.4z"/>
			<path class="st40" d="M142.7,98.7l2.1-15.6c-2.3-4.7-4-9.5-5.1-13l-0.3,2.1c-0.1,0.8-0.7,1.5-1.5,1.7c-2.2,0.6-6.7,1.7-9.1,2.3
				c-0.4,0.1-0.4,0.7,0,0.8c2.4,0.6,6.9,1.7,9.1,2.3c0.8,0.2,1.4,0.9,1.5,1.7l2.4,17.7C141.9,99.2,142.6,99.2,142.7,98.7z"/>
		</g>
		<g>
			<path class="st39" d="M222.6,53.6c0.1,0.5,0.4,0.8,0.8,0.9l5.1,1.3c0.2,0.1,0.2,0.4,0,0.5c-1.3,0.3-3.8,1-5.1,1.3
				c-0.4,0.1-0.8,0.5-0.8,0.9l-1.3,9.9c0,0.3-0.4,0.3-0.5,0l-1.3-9.9c-0.1-0.5-0.4-0.8-0.8-0.9c-1.2-0.3-3.7-0.9-5.1-1.3
				c-0.2-0.1-0.2-0.4,0-0.5c1.3-0.3,3.8-1,5.1-1.3c0.4-0.1,0.8-0.5,0.8-0.9l1.3-9.9c0-0.3,0.4-0.3,0.5,0
				C221.7,46.8,222.6,53,222.6,53.6z"/>
			<path class="st40" d="M221.3,68.3l1.2-8.7c-1.3-2.6-2.2-5.3-2.8-7.2l-0.2,1.2c-0.1,0.5-0.4,0.8-0.8,0.9c-1.2,0.3-3.7,0.9-5.1,1.3
				c-0.2,0.1-0.2,0.4,0,0.5c1.3,0.3,3.8,1,5.1,1.3c0.4,0.1,0.8,0.5,0.8,0.9l1.3,9.9C220.9,68.6,221.3,68.6,221.3,68.3z"/>
		</g>
		<g>
			<path class="st39" d="M72.1,19.7c0.1,0.5,0.4,0.8,0.8,0.9l5.1,1.3c0.2,0.1,0.2,0.4,0,0.5c-1.3,0.3-3.8,1-5.1,1.3
				c-0.4,0.1-0.8,0.5-0.8,0.9l-1.3,9.9c0,0.3-0.4,0.3-0.5,0l-1.3-9.9c-0.1-0.5-0.4-0.8-0.8-0.9c-1.2-0.3-3.7-0.9-5.1-1.3
				c-0.2-0.1-0.2-0.4,0-0.5c1.3-0.3,3.8-1,5.1-1.3c0.4-0.1,0.8-0.5,0.8-0.9l1.3-9.9c0-0.3,0.4-0.3,0.5,0
				C71.2,12.9,72,19.1,72.1,19.7z"/>
			<path class="st40" d="M70.7,34.4l1.2-8.7c-1.3-2.6-2.2-5.3-2.8-7.2l-0.2,1.2c-0.1,0.5-0.4,0.8-0.8,0.9c-1.2,0.3-3.7,0.9-5.1,1.3
				c-0.2,0.1-0.2,0.4,0,0.5c1.3,0.3,3.8,1,5.1,1.3c0.4,0.1,0.8,0.5,0.8,0.9l1.3,9.9C70.3,34.7,70.7,34.7,70.7,34.4z"/>
		</g>
		<g>
			<path class="st53" d="M214.5,84.5c-0.2-0.4-0.1-0.8,0.1-1.2c0.4-0.6,1.2-0.8,1.8-0.5c0.9,0.5,1.8,1.1,2.6,1.6
				c0.6,0.4,0.8,1.2,0.4,1.8c-0.4,0.6-1.2,0.8-1.8,0.4c-0.8-0.5-1.6-1-2.5-1.5C214.8,85,214.6,84.8,214.5,84.5z"/>
			<path class="st54" d="M179.3,71c-0.1-0.2-0.1-0.5-0.1-0.8c0.1-0.7,0.8-1.2,1.5-1c1.2,0.2,2.5,0.5,3.8,0.8c0.7,0.2,1.1,0.9,1,1.6
				c-0.2,0.7-0.9,1.1-1.6,1c-1.3-0.3-2.5-0.6-3.7-0.8C179.8,71.6,179.5,71.3,179.3,71z"/>
			<path class="st55" d="M215.8,89.2c1.9-4.7,1.9-9.8-0.1-14.5c-2-4.7-5.7-8.3-10.3-10.2c-4.7-1.9-9.8-1.9-14.5,0.1
				c-4.7,2-8.3,5.7-10.2,10.3c-1.9,4.7-1.9,9.8,0.1,14.5c2,4.7,5.7,8.3,10.3,10.2c4.7,1.9,9.8,1.9,14.5-0.1
				C210.3,97.6,213.9,93.9,215.8,89.2z"/>
			<path class="st56" d="M215.8,89.2c1.9-4.7,1.9-9.8-0.1-14.5c-2-4.7-5.7-8.3-10.3-10.2l0,0l-14.2,35.2c4.7,1.9,9.8,1.9,14.5-0.1
				C210.3,97.6,213.9,93.9,215.8,89.2z"/>
			<path class="st54" d="M169.9,72.9c-0.4-0.8-0.4-1.6-0.1-2.3c0.5-1.2,1.9-1.9,4.1-2.1c1.7-0.1,4,0.1,6.8,0.6
				c0.7,0.1,1.2,0.8,1,1.5c-0.1,0.7-0.8,1.2-1.5,1c-5.7-1.1-7.8-0.5-8.1-0.2c0,0.5,1.1,2.4,6.4,5.8c4.6,3,11,6.2,17.9,9
				c6.9,2.8,13.7,4.9,19.1,6c6.1,1.2,8.3,0.6,8.6,0.3c0-0.5-1.1-2.4-6.6-5.9c-0.6-0.4-0.8-1.2-0.4-1.8c0.4-0.6,1.2-0.8,1.8-0.4
				c2.6,1.7,4.6,3.2,5.9,4.5c0.6,0.6,2.5,2.6,1.7,4.6c-0.5,1.2-1.9,1.9-4.1,2.1c-1.7,0.1-4-0.1-6.9-0.7c-5.6-1.1-12.8-3.3-20.1-6.3
				c-7.3-3-14-6.3-18.8-9.5c-2.4-1.6-4.2-3-5.4-4.3C170.6,74.2,170.2,73.5,169.9,72.9z"/>
			<path class="st53" d="M226.6,93.6c0.8-2-1.1-3.9-1.7-4.6c-1.3-1.4-3.3-2.9-5.9-4.5c-0.6-0.4-1.4-0.2-1.8,0.4
				c-0.4,0.6-0.2,1.4,0.4,1.8c5.4,3.5,6.6,5.4,6.6,5.9c-0.3,0.3-2.5,0.9-8.6-0.3c-5.4-1.1-12.2-3.2-19.1-6l0,0l-1,2.4l0,0
				c7.3,3,14.5,5.2,20.1,6.3c2.8,0.5,5.1,0.8,6.9,0.7C224.7,95.5,226.1,94.8,226.6,93.6z"/>
		</g>
		<g>
			<path class="st27" d="M254.4,114.6h-4.7h-4.3h-4.7c-1.2,0-2.1,1-2.1,2.1c0,1.2,0.9,2.1,2.1,2.1h4.7h4.3h4.7c1.2,0,2.1-1,2.1-2.1
				C256.5,115.6,255.5,114.6,254.4,114.6z"/>
			<circle class="st27" cx="247.5" cy="110.4" r="2.1"/>
			<circle class="st27" cx="247.5" cy="123.2" r="2.1"/>
		</g>
		<g>
			<g>
				<path class="st32" d="M171.3,111.3l-2-19.6c0-0.2-0.1-0.3-0.3-0.4c-0.2-0.1-0.4,0-0.5,0.2l-12.9,15.8c-0.1,0.2-0.1,0.4,0,0.5
					c0.1,0.2,0.3,0.3,0.5,0.2l5.7-1.2l-1.5,5.7c0,0.2,0,0.4,0.2,0.5c0,0,0.1,0.1,0.2,0.1l3.4,1c0.1,0,0.3,0,0.4,0
					c0.1-0.1,0.2-0.2,0.2-0.3l1.5-5.7l4.5,3.7c0.1,0.1,0.3,0.1,0.5,0C171.2,111.7,171.3,111.5,171.3,111.3z"/>
			</g>
		</g>
	</g>
</g>
</svg>
